G04 #@! TF.GenerationSoftware,KiCad,Pcbnew,5.1.5+dfsg1-2build2*
G04 #@! TF.CreationDate,2021-08-12T07:43:27+01:00*
G04 #@! TF.ProjectId,picoram,7069636f-7261-46d2-9e6b-696361645f70,rev?*
G04 #@! TF.SameCoordinates,Original*
G04 #@! TF.FileFunction,Copper,L1,Top*
G04 #@! TF.FilePolarity,Positive*
%FSLAX46Y46*%
G04 Gerber Fmt 4.6, Leading zero omitted, Abs format (unit mm)*
G04 Created by KiCad (PCBNEW 5.1.5+dfsg1-2build2) date 2021-08-12 07:43:27*
%MOMM*%
%LPD*%
G04 APERTURE LIST*
%ADD10C,2.500000*%
%ADD11C,0.100000*%
%ADD12R,1.000000X1.500000*%
%ADD13C,1.750000*%
%ADD14C,0.250000*%
%ADD15C,0.500000*%
G04 APERTURE END LIST*
D10*
X160500000Y-121200000D03*
G04 #@! TA.AperFunction,SMDPad,CuDef*
D11*
G36*
X157214703Y-123695722D02*
G01*
X157229264Y-123697882D01*
X157243543Y-123701459D01*
X157257403Y-123706418D01*
X157270710Y-123712712D01*
X157283336Y-123720280D01*
X157295159Y-123729048D01*
X157306066Y-123738934D01*
X157315952Y-123749841D01*
X157324720Y-123761664D01*
X157332288Y-123774290D01*
X157338582Y-123787597D01*
X157343541Y-123801457D01*
X157347118Y-123815736D01*
X157349278Y-123830297D01*
X157350000Y-123845000D01*
X157350000Y-124145000D01*
X157349278Y-124159703D01*
X157347118Y-124174264D01*
X157343541Y-124188543D01*
X157338582Y-124202403D01*
X157332288Y-124215710D01*
X157324720Y-124228336D01*
X157315952Y-124240159D01*
X157306066Y-124251066D01*
X157295159Y-124260952D01*
X157283336Y-124269720D01*
X157270710Y-124277288D01*
X157257403Y-124283582D01*
X157243543Y-124288541D01*
X157229264Y-124292118D01*
X157214703Y-124294278D01*
X157200000Y-124295000D01*
X155550000Y-124295000D01*
X155535297Y-124294278D01*
X155520736Y-124292118D01*
X155506457Y-124288541D01*
X155492597Y-124283582D01*
X155479290Y-124277288D01*
X155466664Y-124269720D01*
X155454841Y-124260952D01*
X155443934Y-124251066D01*
X155434048Y-124240159D01*
X155425280Y-124228336D01*
X155417712Y-124215710D01*
X155411418Y-124202403D01*
X155406459Y-124188543D01*
X155402882Y-124174264D01*
X155400722Y-124159703D01*
X155400000Y-124145000D01*
X155400000Y-123845000D01*
X155400722Y-123830297D01*
X155402882Y-123815736D01*
X155406459Y-123801457D01*
X155411418Y-123787597D01*
X155417712Y-123774290D01*
X155425280Y-123761664D01*
X155434048Y-123749841D01*
X155443934Y-123738934D01*
X155454841Y-123729048D01*
X155466664Y-123720280D01*
X155479290Y-123712712D01*
X155492597Y-123706418D01*
X155506457Y-123701459D01*
X155520736Y-123697882D01*
X155535297Y-123695722D01*
X155550000Y-123695000D01*
X157200000Y-123695000D01*
X157214703Y-123695722D01*
G37*
G04 #@! TD.AperFunction*
G04 #@! TA.AperFunction,SMDPad,CuDef*
G36*
X157214703Y-124965722D02*
G01*
X157229264Y-124967882D01*
X157243543Y-124971459D01*
X157257403Y-124976418D01*
X157270710Y-124982712D01*
X157283336Y-124990280D01*
X157295159Y-124999048D01*
X157306066Y-125008934D01*
X157315952Y-125019841D01*
X157324720Y-125031664D01*
X157332288Y-125044290D01*
X157338582Y-125057597D01*
X157343541Y-125071457D01*
X157347118Y-125085736D01*
X157349278Y-125100297D01*
X157350000Y-125115000D01*
X157350000Y-125415000D01*
X157349278Y-125429703D01*
X157347118Y-125444264D01*
X157343541Y-125458543D01*
X157338582Y-125472403D01*
X157332288Y-125485710D01*
X157324720Y-125498336D01*
X157315952Y-125510159D01*
X157306066Y-125521066D01*
X157295159Y-125530952D01*
X157283336Y-125539720D01*
X157270710Y-125547288D01*
X157257403Y-125553582D01*
X157243543Y-125558541D01*
X157229264Y-125562118D01*
X157214703Y-125564278D01*
X157200000Y-125565000D01*
X155550000Y-125565000D01*
X155535297Y-125564278D01*
X155520736Y-125562118D01*
X155506457Y-125558541D01*
X155492597Y-125553582D01*
X155479290Y-125547288D01*
X155466664Y-125539720D01*
X155454841Y-125530952D01*
X155443934Y-125521066D01*
X155434048Y-125510159D01*
X155425280Y-125498336D01*
X155417712Y-125485710D01*
X155411418Y-125472403D01*
X155406459Y-125458543D01*
X155402882Y-125444264D01*
X155400722Y-125429703D01*
X155400000Y-125415000D01*
X155400000Y-125115000D01*
X155400722Y-125100297D01*
X155402882Y-125085736D01*
X155406459Y-125071457D01*
X155411418Y-125057597D01*
X155417712Y-125044290D01*
X155425280Y-125031664D01*
X155434048Y-125019841D01*
X155443934Y-125008934D01*
X155454841Y-124999048D01*
X155466664Y-124990280D01*
X155479290Y-124982712D01*
X155492597Y-124976418D01*
X155506457Y-124971459D01*
X155520736Y-124967882D01*
X155535297Y-124965722D01*
X155550000Y-124965000D01*
X157200000Y-124965000D01*
X157214703Y-124965722D01*
G37*
G04 #@! TD.AperFunction*
G04 #@! TA.AperFunction,SMDPad,CuDef*
G36*
X157214703Y-126235722D02*
G01*
X157229264Y-126237882D01*
X157243543Y-126241459D01*
X157257403Y-126246418D01*
X157270710Y-126252712D01*
X157283336Y-126260280D01*
X157295159Y-126269048D01*
X157306066Y-126278934D01*
X157315952Y-126289841D01*
X157324720Y-126301664D01*
X157332288Y-126314290D01*
X157338582Y-126327597D01*
X157343541Y-126341457D01*
X157347118Y-126355736D01*
X157349278Y-126370297D01*
X157350000Y-126385000D01*
X157350000Y-126685000D01*
X157349278Y-126699703D01*
X157347118Y-126714264D01*
X157343541Y-126728543D01*
X157338582Y-126742403D01*
X157332288Y-126755710D01*
X157324720Y-126768336D01*
X157315952Y-126780159D01*
X157306066Y-126791066D01*
X157295159Y-126800952D01*
X157283336Y-126809720D01*
X157270710Y-126817288D01*
X157257403Y-126823582D01*
X157243543Y-126828541D01*
X157229264Y-126832118D01*
X157214703Y-126834278D01*
X157200000Y-126835000D01*
X155550000Y-126835000D01*
X155535297Y-126834278D01*
X155520736Y-126832118D01*
X155506457Y-126828541D01*
X155492597Y-126823582D01*
X155479290Y-126817288D01*
X155466664Y-126809720D01*
X155454841Y-126800952D01*
X155443934Y-126791066D01*
X155434048Y-126780159D01*
X155425280Y-126768336D01*
X155417712Y-126755710D01*
X155411418Y-126742403D01*
X155406459Y-126728543D01*
X155402882Y-126714264D01*
X155400722Y-126699703D01*
X155400000Y-126685000D01*
X155400000Y-126385000D01*
X155400722Y-126370297D01*
X155402882Y-126355736D01*
X155406459Y-126341457D01*
X155411418Y-126327597D01*
X155417712Y-126314290D01*
X155425280Y-126301664D01*
X155434048Y-126289841D01*
X155443934Y-126278934D01*
X155454841Y-126269048D01*
X155466664Y-126260280D01*
X155479290Y-126252712D01*
X155492597Y-126246418D01*
X155506457Y-126241459D01*
X155520736Y-126237882D01*
X155535297Y-126235722D01*
X155550000Y-126235000D01*
X157200000Y-126235000D01*
X157214703Y-126235722D01*
G37*
G04 #@! TD.AperFunction*
G04 #@! TA.AperFunction,SMDPad,CuDef*
G36*
X157214703Y-127505722D02*
G01*
X157229264Y-127507882D01*
X157243543Y-127511459D01*
X157257403Y-127516418D01*
X157270710Y-127522712D01*
X157283336Y-127530280D01*
X157295159Y-127539048D01*
X157306066Y-127548934D01*
X157315952Y-127559841D01*
X157324720Y-127571664D01*
X157332288Y-127584290D01*
X157338582Y-127597597D01*
X157343541Y-127611457D01*
X157347118Y-127625736D01*
X157349278Y-127640297D01*
X157350000Y-127655000D01*
X157350000Y-127955000D01*
X157349278Y-127969703D01*
X157347118Y-127984264D01*
X157343541Y-127998543D01*
X157338582Y-128012403D01*
X157332288Y-128025710D01*
X157324720Y-128038336D01*
X157315952Y-128050159D01*
X157306066Y-128061066D01*
X157295159Y-128070952D01*
X157283336Y-128079720D01*
X157270710Y-128087288D01*
X157257403Y-128093582D01*
X157243543Y-128098541D01*
X157229264Y-128102118D01*
X157214703Y-128104278D01*
X157200000Y-128105000D01*
X155550000Y-128105000D01*
X155535297Y-128104278D01*
X155520736Y-128102118D01*
X155506457Y-128098541D01*
X155492597Y-128093582D01*
X155479290Y-128087288D01*
X155466664Y-128079720D01*
X155454841Y-128070952D01*
X155443934Y-128061066D01*
X155434048Y-128050159D01*
X155425280Y-128038336D01*
X155417712Y-128025710D01*
X155411418Y-128012403D01*
X155406459Y-127998543D01*
X155402882Y-127984264D01*
X155400722Y-127969703D01*
X155400000Y-127955000D01*
X155400000Y-127655000D01*
X155400722Y-127640297D01*
X155402882Y-127625736D01*
X155406459Y-127611457D01*
X155411418Y-127597597D01*
X155417712Y-127584290D01*
X155425280Y-127571664D01*
X155434048Y-127559841D01*
X155443934Y-127548934D01*
X155454841Y-127539048D01*
X155466664Y-127530280D01*
X155479290Y-127522712D01*
X155492597Y-127516418D01*
X155506457Y-127511459D01*
X155520736Y-127507882D01*
X155535297Y-127505722D01*
X155550000Y-127505000D01*
X157200000Y-127505000D01*
X157214703Y-127505722D01*
G37*
G04 #@! TD.AperFunction*
G04 #@! TA.AperFunction,SMDPad,CuDef*
G36*
X152264703Y-127505722D02*
G01*
X152279264Y-127507882D01*
X152293543Y-127511459D01*
X152307403Y-127516418D01*
X152320710Y-127522712D01*
X152333336Y-127530280D01*
X152345159Y-127539048D01*
X152356066Y-127548934D01*
X152365952Y-127559841D01*
X152374720Y-127571664D01*
X152382288Y-127584290D01*
X152388582Y-127597597D01*
X152393541Y-127611457D01*
X152397118Y-127625736D01*
X152399278Y-127640297D01*
X152400000Y-127655000D01*
X152400000Y-127955000D01*
X152399278Y-127969703D01*
X152397118Y-127984264D01*
X152393541Y-127998543D01*
X152388582Y-128012403D01*
X152382288Y-128025710D01*
X152374720Y-128038336D01*
X152365952Y-128050159D01*
X152356066Y-128061066D01*
X152345159Y-128070952D01*
X152333336Y-128079720D01*
X152320710Y-128087288D01*
X152307403Y-128093582D01*
X152293543Y-128098541D01*
X152279264Y-128102118D01*
X152264703Y-128104278D01*
X152250000Y-128105000D01*
X150600000Y-128105000D01*
X150585297Y-128104278D01*
X150570736Y-128102118D01*
X150556457Y-128098541D01*
X150542597Y-128093582D01*
X150529290Y-128087288D01*
X150516664Y-128079720D01*
X150504841Y-128070952D01*
X150493934Y-128061066D01*
X150484048Y-128050159D01*
X150475280Y-128038336D01*
X150467712Y-128025710D01*
X150461418Y-128012403D01*
X150456459Y-127998543D01*
X150452882Y-127984264D01*
X150450722Y-127969703D01*
X150450000Y-127955000D01*
X150450000Y-127655000D01*
X150450722Y-127640297D01*
X150452882Y-127625736D01*
X150456459Y-127611457D01*
X150461418Y-127597597D01*
X150467712Y-127584290D01*
X150475280Y-127571664D01*
X150484048Y-127559841D01*
X150493934Y-127548934D01*
X150504841Y-127539048D01*
X150516664Y-127530280D01*
X150529290Y-127522712D01*
X150542597Y-127516418D01*
X150556457Y-127511459D01*
X150570736Y-127507882D01*
X150585297Y-127505722D01*
X150600000Y-127505000D01*
X152250000Y-127505000D01*
X152264703Y-127505722D01*
G37*
G04 #@! TD.AperFunction*
G04 #@! TA.AperFunction,SMDPad,CuDef*
G36*
X152264703Y-126235722D02*
G01*
X152279264Y-126237882D01*
X152293543Y-126241459D01*
X152307403Y-126246418D01*
X152320710Y-126252712D01*
X152333336Y-126260280D01*
X152345159Y-126269048D01*
X152356066Y-126278934D01*
X152365952Y-126289841D01*
X152374720Y-126301664D01*
X152382288Y-126314290D01*
X152388582Y-126327597D01*
X152393541Y-126341457D01*
X152397118Y-126355736D01*
X152399278Y-126370297D01*
X152400000Y-126385000D01*
X152400000Y-126685000D01*
X152399278Y-126699703D01*
X152397118Y-126714264D01*
X152393541Y-126728543D01*
X152388582Y-126742403D01*
X152382288Y-126755710D01*
X152374720Y-126768336D01*
X152365952Y-126780159D01*
X152356066Y-126791066D01*
X152345159Y-126800952D01*
X152333336Y-126809720D01*
X152320710Y-126817288D01*
X152307403Y-126823582D01*
X152293543Y-126828541D01*
X152279264Y-126832118D01*
X152264703Y-126834278D01*
X152250000Y-126835000D01*
X150600000Y-126835000D01*
X150585297Y-126834278D01*
X150570736Y-126832118D01*
X150556457Y-126828541D01*
X150542597Y-126823582D01*
X150529290Y-126817288D01*
X150516664Y-126809720D01*
X150504841Y-126800952D01*
X150493934Y-126791066D01*
X150484048Y-126780159D01*
X150475280Y-126768336D01*
X150467712Y-126755710D01*
X150461418Y-126742403D01*
X150456459Y-126728543D01*
X150452882Y-126714264D01*
X150450722Y-126699703D01*
X150450000Y-126685000D01*
X150450000Y-126385000D01*
X150450722Y-126370297D01*
X150452882Y-126355736D01*
X150456459Y-126341457D01*
X150461418Y-126327597D01*
X150467712Y-126314290D01*
X150475280Y-126301664D01*
X150484048Y-126289841D01*
X150493934Y-126278934D01*
X150504841Y-126269048D01*
X150516664Y-126260280D01*
X150529290Y-126252712D01*
X150542597Y-126246418D01*
X150556457Y-126241459D01*
X150570736Y-126237882D01*
X150585297Y-126235722D01*
X150600000Y-126235000D01*
X152250000Y-126235000D01*
X152264703Y-126235722D01*
G37*
G04 #@! TD.AperFunction*
G04 #@! TA.AperFunction,SMDPad,CuDef*
G36*
X152264703Y-124965722D02*
G01*
X152279264Y-124967882D01*
X152293543Y-124971459D01*
X152307403Y-124976418D01*
X152320710Y-124982712D01*
X152333336Y-124990280D01*
X152345159Y-124999048D01*
X152356066Y-125008934D01*
X152365952Y-125019841D01*
X152374720Y-125031664D01*
X152382288Y-125044290D01*
X152388582Y-125057597D01*
X152393541Y-125071457D01*
X152397118Y-125085736D01*
X152399278Y-125100297D01*
X152400000Y-125115000D01*
X152400000Y-125415000D01*
X152399278Y-125429703D01*
X152397118Y-125444264D01*
X152393541Y-125458543D01*
X152388582Y-125472403D01*
X152382288Y-125485710D01*
X152374720Y-125498336D01*
X152365952Y-125510159D01*
X152356066Y-125521066D01*
X152345159Y-125530952D01*
X152333336Y-125539720D01*
X152320710Y-125547288D01*
X152307403Y-125553582D01*
X152293543Y-125558541D01*
X152279264Y-125562118D01*
X152264703Y-125564278D01*
X152250000Y-125565000D01*
X150600000Y-125565000D01*
X150585297Y-125564278D01*
X150570736Y-125562118D01*
X150556457Y-125558541D01*
X150542597Y-125553582D01*
X150529290Y-125547288D01*
X150516664Y-125539720D01*
X150504841Y-125530952D01*
X150493934Y-125521066D01*
X150484048Y-125510159D01*
X150475280Y-125498336D01*
X150467712Y-125485710D01*
X150461418Y-125472403D01*
X150456459Y-125458543D01*
X150452882Y-125444264D01*
X150450722Y-125429703D01*
X150450000Y-125415000D01*
X150450000Y-125115000D01*
X150450722Y-125100297D01*
X150452882Y-125085736D01*
X150456459Y-125071457D01*
X150461418Y-125057597D01*
X150467712Y-125044290D01*
X150475280Y-125031664D01*
X150484048Y-125019841D01*
X150493934Y-125008934D01*
X150504841Y-124999048D01*
X150516664Y-124990280D01*
X150529290Y-124982712D01*
X150542597Y-124976418D01*
X150556457Y-124971459D01*
X150570736Y-124967882D01*
X150585297Y-124965722D01*
X150600000Y-124965000D01*
X152250000Y-124965000D01*
X152264703Y-124965722D01*
G37*
G04 #@! TD.AperFunction*
G04 #@! TA.AperFunction,SMDPad,CuDef*
G36*
X152264703Y-123695722D02*
G01*
X152279264Y-123697882D01*
X152293543Y-123701459D01*
X152307403Y-123706418D01*
X152320710Y-123712712D01*
X152333336Y-123720280D01*
X152345159Y-123729048D01*
X152356066Y-123738934D01*
X152365952Y-123749841D01*
X152374720Y-123761664D01*
X152382288Y-123774290D01*
X152388582Y-123787597D01*
X152393541Y-123801457D01*
X152397118Y-123815736D01*
X152399278Y-123830297D01*
X152400000Y-123845000D01*
X152400000Y-124145000D01*
X152399278Y-124159703D01*
X152397118Y-124174264D01*
X152393541Y-124188543D01*
X152388582Y-124202403D01*
X152382288Y-124215710D01*
X152374720Y-124228336D01*
X152365952Y-124240159D01*
X152356066Y-124251066D01*
X152345159Y-124260952D01*
X152333336Y-124269720D01*
X152320710Y-124277288D01*
X152307403Y-124283582D01*
X152293543Y-124288541D01*
X152279264Y-124292118D01*
X152264703Y-124294278D01*
X152250000Y-124295000D01*
X150600000Y-124295000D01*
X150585297Y-124294278D01*
X150570736Y-124292118D01*
X150556457Y-124288541D01*
X150542597Y-124283582D01*
X150529290Y-124277288D01*
X150516664Y-124269720D01*
X150504841Y-124260952D01*
X150493934Y-124251066D01*
X150484048Y-124240159D01*
X150475280Y-124228336D01*
X150467712Y-124215710D01*
X150461418Y-124202403D01*
X150456459Y-124188543D01*
X150452882Y-124174264D01*
X150450722Y-124159703D01*
X150450000Y-124145000D01*
X150450000Y-123845000D01*
X150450722Y-123830297D01*
X150452882Y-123815736D01*
X150456459Y-123801457D01*
X150461418Y-123787597D01*
X150467712Y-123774290D01*
X150475280Y-123761664D01*
X150484048Y-123749841D01*
X150493934Y-123738934D01*
X150504841Y-123729048D01*
X150516664Y-123720280D01*
X150529290Y-123712712D01*
X150542597Y-123706418D01*
X150556457Y-123701459D01*
X150570736Y-123697882D01*
X150585297Y-123695722D01*
X150600000Y-123695000D01*
X152250000Y-123695000D01*
X152264703Y-123695722D01*
G37*
G04 #@! TD.AperFunction*
D12*
X160050000Y-124450000D03*
X161350000Y-124450000D03*
X160050000Y-127450000D03*
X161350000Y-127450000D03*
G04 #@! TA.AperFunction,SMDPad,CuDef*
D11*
G36*
X153174505Y-120751204D02*
G01*
X153198773Y-120754804D01*
X153222572Y-120760765D01*
X153245671Y-120769030D01*
X153267850Y-120779520D01*
X153288893Y-120792132D01*
X153308599Y-120806747D01*
X153326777Y-120823223D01*
X153343253Y-120841401D01*
X153357868Y-120861107D01*
X153370480Y-120882150D01*
X153380970Y-120904329D01*
X153389235Y-120927428D01*
X153395196Y-120951227D01*
X153398796Y-120975495D01*
X153400000Y-120999999D01*
X153400000Y-121900001D01*
X153398796Y-121924505D01*
X153395196Y-121948773D01*
X153389235Y-121972572D01*
X153380970Y-121995671D01*
X153370480Y-122017850D01*
X153357868Y-122038893D01*
X153343253Y-122058599D01*
X153326777Y-122076777D01*
X153308599Y-122093253D01*
X153288893Y-122107868D01*
X153267850Y-122120480D01*
X153245671Y-122130970D01*
X153222572Y-122139235D01*
X153198773Y-122145196D01*
X153174505Y-122148796D01*
X153150001Y-122150000D01*
X152499999Y-122150000D01*
X152475495Y-122148796D01*
X152451227Y-122145196D01*
X152427428Y-122139235D01*
X152404329Y-122130970D01*
X152382150Y-122120480D01*
X152361107Y-122107868D01*
X152341401Y-122093253D01*
X152323223Y-122076777D01*
X152306747Y-122058599D01*
X152292132Y-122038893D01*
X152279520Y-122017850D01*
X152269030Y-121995671D01*
X152260765Y-121972572D01*
X152254804Y-121948773D01*
X152251204Y-121924505D01*
X152250000Y-121900001D01*
X152250000Y-120999999D01*
X152251204Y-120975495D01*
X152254804Y-120951227D01*
X152260765Y-120927428D01*
X152269030Y-120904329D01*
X152279520Y-120882150D01*
X152292132Y-120861107D01*
X152306747Y-120841401D01*
X152323223Y-120823223D01*
X152341401Y-120806747D01*
X152361107Y-120792132D01*
X152382150Y-120779520D01*
X152404329Y-120769030D01*
X152427428Y-120760765D01*
X152451227Y-120754804D01*
X152475495Y-120751204D01*
X152499999Y-120750000D01*
X153150001Y-120750000D01*
X153174505Y-120751204D01*
G37*
G04 #@! TD.AperFunction*
G04 #@! TA.AperFunction,SMDPad,CuDef*
G36*
X155224505Y-120751204D02*
G01*
X155248773Y-120754804D01*
X155272572Y-120760765D01*
X155295671Y-120769030D01*
X155317850Y-120779520D01*
X155338893Y-120792132D01*
X155358599Y-120806747D01*
X155376777Y-120823223D01*
X155393253Y-120841401D01*
X155407868Y-120861107D01*
X155420480Y-120882150D01*
X155430970Y-120904329D01*
X155439235Y-120927428D01*
X155445196Y-120951227D01*
X155448796Y-120975495D01*
X155450000Y-120999999D01*
X155450000Y-121900001D01*
X155448796Y-121924505D01*
X155445196Y-121948773D01*
X155439235Y-121972572D01*
X155430970Y-121995671D01*
X155420480Y-122017850D01*
X155407868Y-122038893D01*
X155393253Y-122058599D01*
X155376777Y-122076777D01*
X155358599Y-122093253D01*
X155338893Y-122107868D01*
X155317850Y-122120480D01*
X155295671Y-122130970D01*
X155272572Y-122139235D01*
X155248773Y-122145196D01*
X155224505Y-122148796D01*
X155200001Y-122150000D01*
X154549999Y-122150000D01*
X154525495Y-122148796D01*
X154501227Y-122145196D01*
X154477428Y-122139235D01*
X154454329Y-122130970D01*
X154432150Y-122120480D01*
X154411107Y-122107868D01*
X154391401Y-122093253D01*
X154373223Y-122076777D01*
X154356747Y-122058599D01*
X154342132Y-122038893D01*
X154329520Y-122017850D01*
X154319030Y-121995671D01*
X154310765Y-121972572D01*
X154304804Y-121948773D01*
X154301204Y-121924505D01*
X154300000Y-121900001D01*
X154300000Y-120999999D01*
X154301204Y-120975495D01*
X154304804Y-120951227D01*
X154310765Y-120927428D01*
X154319030Y-120904329D01*
X154329520Y-120882150D01*
X154342132Y-120861107D01*
X154356747Y-120841401D01*
X154373223Y-120823223D01*
X154391401Y-120806747D01*
X154411107Y-120792132D01*
X154432150Y-120779520D01*
X154454329Y-120769030D01*
X154477428Y-120760765D01*
X154501227Y-120754804D01*
X154525495Y-120751204D01*
X154549999Y-120750000D01*
X155200001Y-120750000D01*
X155224505Y-120751204D01*
G37*
G04 #@! TD.AperFunction*
D13*
X165400000Y-121050000D03*
X165400000Y-123600000D03*
X165450000Y-126100000D03*
X147600000Y-126111146D03*
X165400000Y-131200000D03*
X165400000Y-128650000D03*
X147600000Y-128651114D03*
X147700000Y-131200000D03*
X147700000Y-121031210D03*
X147650000Y-123571178D03*
D14*
X147971885Y-126431885D02*
X147973022Y-126111146D01*
X147973022Y-126111146D02*
X147973022Y-126111146D01*
X147975266Y-126110001D02*
X147975261Y-126111266D01*
D15*
X148099916Y-126200000D02*
X148098824Y-126480747D01*
X151425000Y-127805000D02*
X149555000Y-127805000D01*
X149555000Y-127805000D02*
X148400000Y-126650000D01*
X148400000Y-126600000D02*
X148350000Y-126550000D01*
X148400000Y-126650000D02*
X148350000Y-126550000D01*
D14*
X149159990Y-125890010D02*
X148400000Y-126650000D01*
X152446758Y-125890010D02*
X149159990Y-125890010D01*
X152825000Y-122150000D02*
X153175020Y-122500020D01*
X153175020Y-125161748D02*
X152446758Y-125890010D01*
X153175020Y-122500020D02*
X153175020Y-125161748D01*
X152825000Y-121450000D02*
X152825000Y-122150000D01*
D15*
X160250000Y-121450000D02*
X160500000Y-121200000D01*
X154875000Y-121450000D02*
X160250000Y-121450000D01*
X154875000Y-122495000D02*
X156375000Y-123995000D01*
X154875000Y-121450000D02*
X154875000Y-122495000D01*
D14*
X160050000Y-126450000D02*
X159600000Y-126000000D01*
X160050000Y-127450000D02*
X160050000Y-126450000D01*
X159600000Y-126000000D02*
X158350000Y-126000000D01*
X157615000Y-125265000D02*
X156375000Y-125265000D01*
X158350000Y-126000000D02*
X157615000Y-125265000D01*
X164840001Y-131190001D02*
X165099990Y-131190001D01*
X161350000Y-127450000D02*
X161350000Y-127700000D01*
X165099990Y-131190001D02*
X165099990Y-131190001D01*
X164090001Y-131190001D02*
X165099990Y-131190001D01*
X161350000Y-128450000D02*
X164090001Y-131190001D01*
X161350000Y-127450000D02*
X161350000Y-128450000D01*
D15*
X163850000Y-131200000D02*
X164974990Y-131200000D01*
X161350000Y-128700000D02*
X163850000Y-131200000D01*
X161350000Y-127450000D02*
X161350000Y-128700000D01*
D14*
X151425000Y-126535000D02*
X152400000Y-126535000D01*
X159110010Y-124639990D02*
X154760010Y-124639990D01*
X159300000Y-124450000D02*
X159110010Y-124639990D01*
X160050000Y-124450000D02*
X159300000Y-124450000D01*
X152865000Y-126535000D02*
X151425000Y-126535000D01*
X154760010Y-124639990D02*
X152865000Y-126535000D01*
X164500001Y-128650001D02*
X165099990Y-128650001D01*
X165099990Y-128650001D02*
X165099990Y-128650001D01*
X164150000Y-128650000D02*
X165099990Y-128650000D01*
D15*
X163350000Y-127950000D02*
X164000000Y-128600000D01*
X163350000Y-126600000D02*
X163350000Y-127950000D01*
X163300000Y-126550000D02*
X163350000Y-126600000D01*
X163300000Y-125400000D02*
X163300000Y-126550000D01*
X162350000Y-124450000D02*
X163300000Y-125400000D01*
X161350000Y-124450000D02*
X162350000Y-124450000D01*
D14*
X164000000Y-128600000D02*
X164150000Y-128650000D01*
D15*
X164974990Y-128600000D02*
X164974990Y-128650000D01*
X164000000Y-128600000D02*
X164974990Y-128600000D01*
D14*
X147964019Y-128650001D02*
X147964015Y-128651114D01*
X154041768Y-126835000D02*
X152226767Y-128650001D01*
X156075000Y-126835000D02*
X154041768Y-126835000D01*
X156375000Y-126535000D02*
X156075000Y-126835000D01*
X147964015Y-128651114D02*
X147964015Y-128651114D01*
X147965382Y-128650001D02*
X147964568Y-128859299D01*
X152226767Y-128650001D02*
X147965382Y-128650001D01*
X147955012Y-131190001D02*
X147955012Y-131190001D01*
X153469990Y-128430010D02*
X150709999Y-131190001D01*
X147955012Y-131190001D02*
X147955008Y-131191082D01*
X147955499Y-131190001D02*
X147955495Y-131191189D01*
X150709999Y-131190001D02*
X147955499Y-131190001D01*
D15*
X156030000Y-128450000D02*
X153550000Y-128450000D01*
X156375000Y-128105000D02*
X156030000Y-128450000D01*
X156375000Y-127805000D02*
X156375000Y-128105000D01*
D14*
X153550000Y-128450000D02*
X153469990Y-128430010D01*
D15*
X150798520Y-131201480D02*
X148080456Y-131201480D01*
X153550000Y-128450000D02*
X150798520Y-131201480D01*
D14*
X147989835Y-121369835D02*
X147991036Y-121031210D01*
X147991036Y-121031210D02*
X147991036Y-121031210D01*
X149600000Y-122980001D02*
X147993695Y-121373695D01*
X149600000Y-123000000D02*
X149600000Y-122980001D01*
X147993695Y-121373695D02*
X147995027Y-121031343D01*
X152076768Y-123000000D02*
X149600000Y-123000000D01*
X152725010Y-123648242D02*
X152076768Y-123000000D01*
X152725010Y-124939990D02*
X152725010Y-123648242D01*
X152400000Y-125265000D02*
X152725010Y-124939990D01*
X151425000Y-125265000D02*
X152400000Y-125265000D01*
X147980860Y-123900860D02*
X147982029Y-123571178D01*
X147982029Y-123571178D02*
X147982029Y-123571178D01*
X151425000Y-123995000D02*
X151420000Y-124000000D01*
X147983850Y-123903850D02*
X147985144Y-123571305D01*
X148079999Y-124000000D02*
X147983850Y-123903850D01*
X151420000Y-124000000D02*
X148079999Y-124000000D01*
M02*
